<svg width="46" height="50" viewBox="0 0 46 50" fill="none" xmlns="http://www.w3.org/2000/svg">
<path d="M24.2787 48.7259L24.2535 48.7305L24.0907 48.8107L24.0449 48.8199L24.0128 48.8107L23.8501 48.7305C23.8256 48.7228 23.8073 48.7266 23.7951 48.7419L23.7859 48.7648L23.7469 49.7458L23.7584 49.7916L23.7813 49.8214L24.0197 49.991L24.0541 50.0002L24.0816 49.991L24.3199 49.8214L24.3474 49.7848L24.3566 49.7458L24.3176 48.7671C24.3115 48.7427 24.2985 48.7289 24.2787 48.7259ZM24.886 48.4669L24.8562 48.4715L24.4322 48.6846L24.4093 48.7075L24.4024 48.7328L24.4437 49.7183L24.4552 49.7458L24.4735 49.7618L24.9342 49.975C24.9632 49.9826 24.9854 49.9765 25.0006 49.9566L25.0098 49.9246L24.9319 48.5173C24.9242 48.4898 24.909 48.473 24.886 48.4669ZM23.2473 48.4715C23.2372 48.4654 23.2251 48.4634 23.2136 48.4659C23.2021 48.4685 23.192 48.4754 23.1854 48.4852L23.1717 48.5173L23.0938 49.9246C23.0953 49.9521 23.1083 49.9704 23.1327 49.9796L23.1671 49.975L23.6278 49.7618L23.6507 49.7435L23.6599 49.7183L23.6988 48.7328L23.6919 48.7053L23.669 48.6823L23.2473 48.4715Z" fill="#6861F2"/>
<path d="M22.9192 0C35.5775 0 45.8385 10.2609 45.8385 22.9192C45.8385 35.5775 35.5775 45.8385 22.9192 45.8385C10.2609 45.8385 0 35.5775 0 22.9192C0 10.2609 10.2609 0 22.9192 0ZM22.9192 4.58385C18.0564 4.58385 13.3927 6.51561 9.95416 9.95416C6.51561 13.3927 4.58385 18.0564 4.58385 22.9192C4.58385 27.7821 6.51561 32.4458 9.95416 35.8843C13.3927 39.3229 18.0564 41.2546 22.9192 41.2546C27.7821 41.2546 32.4458 39.3229 35.8843 35.8843C39.3229 32.4458 41.2546 27.7821 41.2546 22.9192C41.2546 18.0564 39.3229 13.3927 35.8843 9.95416C32.4458 6.51561 27.7821 4.58385 22.9192 4.58385ZM22.9192 9.1677C23.4806 9.16777 24.0224 9.37387 24.4419 9.7469C24.8614 10.1199 25.1294 10.634 25.1951 11.1915L25.2112 11.4596V21.9704L31.4154 28.1746C31.8265 28.5871 32.0651 29.1405 32.0829 29.7226C32.1007 30.3046 31.8962 30.8716 31.5111 31.3083C31.126 31.7451 30.5891 32.0189 30.0094 32.0741C29.4297 32.1293 28.8507 31.9618 28.3901 31.6056L28.1746 31.4154L21.2989 24.5396C20.9426 24.1831 20.7139 23.7191 20.6479 23.2195L20.6273 22.9192V11.4596C20.6273 10.8518 20.8688 10.2688 21.2986 9.83899C21.7284 9.40917 22.3114 9.1677 22.9192 9.1677Z" fill="#6861F2"/>
</svg>
