<svg width="51" height="51" viewBox="0 0 51 51" fill="none" xmlns="http://www.w3.org/2000/svg">
<path d="M22.0612 1.42238C22.9221 0.56261 24.0739 0.0567106 25.2895 0.00448639C26.5051 -0.0477379 27.6961 0.357506 28.6275 1.14027L28.9388 1.42481L33.5596 6.04312H40.0918C41.3185 6.04335 42.4998 6.50707 43.3991 7.3414C44.2984 8.17572 44.8492 9.31903 44.9412 10.5423L44.9558 10.9071V17.4393L49.5765 22.0601C50.437 22.9211 50.9433 24.0734 50.9955 25.2896C51.0477 26.5057 50.6421 27.6972 49.8586 28.6288L49.5741 28.9377L44.9533 33.5584V40.0907C44.9537 41.3178 44.4903 42.4997 43.6559 43.3995C42.8215 44.2993 41.6778 44.8505 40.4542 44.9425L40.0918 44.9547H33.562L28.9412 49.5754C28.0802 50.4359 26.9279 50.9422 25.7117 50.9944C24.4956 51.0466 23.3041 50.641 22.3725 49.8575L22.0636 49.5754L17.4429 44.9547H10.9082C9.68106 44.9551 8.49914 44.4916 7.59936 43.6572C6.69958 42.8228 6.14842 41.6792 6.05639 40.4555L6.04423 40.0907V33.5584L1.42349 28.9377C0.56304 28.0767 0.0567124 26.9243 0.00448308 25.7082C-0.0477463 24.4921 0.35792 23.3006 1.14138 22.3689L1.42349 22.0601L6.04423 17.4393V10.9071C6.04446 9.68037 6.50818 8.49906 7.34251 7.59979C8.17683 6.70052 9.32014 6.14971 10.5434 6.05771L10.9082 6.04312H17.4404L22.0612 1.42238ZM25.5 4.86605L20.8793 9.48679C20.0714 10.2934 19.0056 10.7901 17.8685 10.89L17.4404 10.9071H10.9082V17.4393C10.9085 18.5821 10.5064 19.6885 9.77244 20.5644L9.48304 20.8806L4.86229 25.5013L9.48304 30.1196C10.2905 30.9271 10.7881 31.9929 10.8887 33.1304L10.9082 33.5584V40.0907H17.4404C18.5832 40.0904 19.6896 40.4925 20.5655 41.2264L20.8817 41.5159L25.5 46.1366L30.1207 41.5159C30.9282 40.7084 31.994 40.2108 33.1315 40.1102L33.5596 40.0907H40.0918V33.5584C40.0915 32.4157 40.4936 31.3093 41.2276 30.4334L41.517 30.1172L46.1377 25.4989L41.517 20.8781C40.7095 20.0707 40.2119 19.0049 40.1113 17.8674L40.0918 17.4393V10.9071H33.5596C32.4168 10.9074 31.3104 10.5053 30.4345 9.77133L30.1183 9.48193L25.4976 4.86118L25.5 4.86605ZM32.9905 18.1641C33.4281 17.7279 34.0154 17.4747 34.633 17.4558C35.2506 17.4369 35.8522 17.6539 36.3157 18.0625C36.7791 18.4712 37.0696 19.0409 37.1282 19.656C37.1868 20.2711 37.0091 20.8855 36.6311 21.3743L36.4268 21.6029L24.5588 33.4709C24.0955 33.9348 23.4779 34.2125 22.8233 34.251C22.1687 34.2896 21.5228 34.0864 21.0081 33.68L20.7747 33.4733L14.9282 27.6269C14.4874 27.1902 14.2302 26.6016 14.2091 25.9815C14.1881 25.3614 14.4049 24.7567 14.8151 24.2912C15.2252 23.8257 15.7979 23.5346 16.4157 23.4774C17.0335 23.4203 17.6498 23.6014 18.1384 23.9838L18.367 24.1856L22.6668 28.4854L32.9905 18.1641Z" fill="#6861F2"/>
</svg>
