<svg width="46" height="51" viewBox="0 0 46 51" fill="none" xmlns="http://www.w3.org/2000/svg">
<path d="M3 3H34.5C38.7435 3 40.863 3 42.1815 4.3185C43.5 5.637 43.5 7.7565 43.5 12V25.5C43.5 29.7435 43.5 31.863 42.1815 33.1815C40.863 34.5 38.7435 34.5 34.5 34.5H18.75M21 13.125H34.5M3 36.75V27.75C3 25.6283 3 24.5685 3.65925 23.9093C4.3185 23.25 5.37825 23.25 7.5 23.25H12M3 36.75H12M3 36.75V48M12 23.25V36.75M12 23.25H25.5M12 36.75V48" stroke="#6861F2" stroke-width="4.62857" stroke-linecap="round" stroke-linejoin="round"/>
<path d="M12 13.1289C12 14.3224 11.5259 15.467 10.682 16.3109C9.83807 17.1548 8.69347 17.6289 7.5 17.6289C6.30653 17.6289 5.16193 17.1548 4.31802 16.3109C3.47411 15.467 3 14.3224 3 13.1289C3 11.9354 3.47411 10.7908 4.31802 9.94693C5.16193 9.10301 6.30653 8.62891 7.5 8.62891C8.69347 8.62891 9.83807 9.10301 10.682 9.94693C11.5259 10.7908 12 11.9354 12 13.1289Z" stroke="#6861F2" stroke-width="4.62857" stroke-linecap="round" stroke-linejoin="round"/>
</svg>
