<svg width="53" height="46" viewBox="0 0 53 46" fill="none" xmlns="http://www.w3.org/2000/svg">
<path d="M12.1345 43.1952H23.0959M17.6152 43.1952V35.8876M3 17.6186V32.2338C3 33.2028 3.38495 34.1322 4.07017 34.8174C4.75539 35.5026 5.68475 35.8876 6.65379 35.8876H28.5765C29.5456 35.8876 30.4749 35.5026 31.1602 34.8174C31.8454 34.1322 32.2303 33.2028 32.2303 32.2338V17.6186C32.2303 16.6496 31.8454 15.7202 31.1602 15.035C30.4749 14.3498 29.5456 13.9648 28.5765 13.9648H6.65379C5.68475 13.9648 4.75539 14.3498 4.07017 15.035C3.38495 15.7202 3 16.6496 3 17.6186Z" stroke="#6861F2" stroke-width="4.74993" stroke-linecap="round" stroke-linejoin="round"/>
<path d="M28.582 6.65379V4.8269C28.582 4.34237 28.7745 3.8777 29.1171 3.53509C29.4597 3.19248 29.9244 3 30.4089 3H48.6779C49.1624 3 49.6271 3.19248 49.9697 3.53509C50.3123 3.8777 50.5048 4.34237 50.5048 4.8269V41.3648C50.5048 41.8493 50.3123 42.314 49.9697 42.6566C49.6271 42.9992 49.1624 43.1917 48.6779 43.1917H34.0627" stroke="#6861F2" stroke-width="4.74993" stroke-linecap="round" stroke-linejoin="round"/>
<path d="M39.5352 19.4473H50.4965M42.7322 11.683C42.6111 11.683 42.4949 11.6349 42.4093 11.5492C42.3236 11.4636 42.2755 11.3474 42.2755 11.2263C42.2755 11.1051 42.3236 10.989 42.4093 10.9033C42.4949 10.8176 42.6111 10.7695 42.7322 10.7695C42.8534 10.7695 42.9695 10.8176 43.0552 10.9033C43.1408 10.989 43.1889 11.1051 43.1889 11.2263C43.1889 11.3474 43.1408 11.4636 43.0552 11.5492C42.9695 11.6349 42.8534 11.683 42.7322 11.683Z" stroke="#6861F2" stroke-width="4.74993" stroke-linecap="round" stroke-linejoin="round"/>
</svg>
