<?xml version="1.0" encoding="UTF-8"?>
<svg id="Layer_1" data-name="Layer 1" xmlns="http://www.w3.org/2000/svg" viewBox="0 0 1052.71 121.95">
  <defs>
    <style>
      .cls-1 {
        fill: #038bbb;
      }

      .cls-1, .cls-2, .cls-3, .cls-4 {
        stroke-width: 0px;
      }

      .cls-2 {
        fill: #e42270;
      }

      .cls-3 {
        fill: #2cb47d;
      }

      .cls-4 {
        fill: #fbb817;
      }
    </style>
  </defs>
  <g id="Layer_3" data-name="Layer 3">
    <path class="cls-1" d="M1052.51,83.12c-1.38-1.84-2.76-3.32-4.15-4.83l-2.07-2.11-.26-.26-.26-.24-.52-.48-1.03-.97-1.03-.97-1.03-.88-2.07-1.77c-.17-.15-.34-.29-.52-.42l-.52-.41-1.03-.82c-.69-.51-1.38-1.04-2.07-1.55-.69-.49-1.38-.98-2.07-1.46l-2.06-1.38-2.06-1.29c-.34-.22-.69-.41-1.03-.61l-1.03-.6c-.69-.41-1.38-.77-2.06-1.14l-1.03-.56c-.34-.18-.69-.34-1.03-.52l-1.03-.51c-.34-.17-.69-.35-1.03-.5l-2.06-.93c-.17-.08-.34-.16-.52-.23l-.52-.21-1.03-.42c-.69-.28-1.37-.57-2.06-.81l-2.06-.75c-.17-.07-.34-.12-.51-.18l-.51-.17-1.03-.33c-1.37-.47-2.75-.81-4.12-1.2-.17-.05-.34-.1-.51-.14l-.51-.12-1.03-.24-1.03-.24c-.34-.08-.69-.17-1.03-.23l-2.06-.39-1.03-.19c-.34-.06-.69-.1-1.03-.15-1.37-.19-2.74-.41-4.11-.54-.34-.04-.69-.07-1.03-.1l-1.03-.09c-.69-.05-1.37-.09-2.06-.14l-2.06-.09-2.05-.05c-21.92-.59-43.83-.61-65.74.13l-4.11.13c-.68.02-1.37.05-2.05.08l-2.05.09-8.22.35-8.21.43-2.05.11c-.68.04-1.37.09-2.05.13l-4.11.27-8.21.54-4.11.27c-1.37.09-2.74.17-4.11.29l-16.43,1.34c-21.9,1.91-43.8,4.23-65.69,6.45l-16.42,1.68-16.42,1.55-4.11.39c-1.37.12-2.74.23-4.11.35l-8.21.68-8.21.68-1.03.09-1.03.07-2.05.14-4.11.28-8.21.56-4.11.28-2.05.14c-.68.05-1.37.08-2.05.12l-8.21.46c-1.37.08-2.74.14-4.11.2l-4.11.19-4.11.19c-1.37.06-2.74.1-4.11.16l-8.22.3-8.22.22-4.11.11-4.11.07-8.22.13c-2.74.03-5.48.04-8.22.05-5.48.06-10.96,0-16.44-.03h-1.03l-1.03-.02-2.05-.03-4.11-.07-4.11-.07c-1.37-.03-2.74-.07-4.11-.11-2.74-.08-5.48-.15-8.22-.24l-8.22-.32-2.06-.08-2.06-.1-4.11-.2-4.11-.2c-1.37-.07-2.74-.16-4.11-.24l-4.11-.25-2.06-.12-1.03-.06-1.03-.08-8.22-.61c-5.48-.41-10.96-.77-16.45-1.3l-8.22-.74-4.11-.37c-.69-.06-1.37-.12-2.06-.19l-2.06-.21-16.45-1.67-16.45-1.81c-10.97-1.21-21.93-2.43-32.9-3.61l-4.11-.45-2.06-.22-2.06-.21-8.22-.82-8.22-.82-8.22-.72c-5.48-.47-10.96-.99-16.45-1.36l-4.11-.31-4.11-.27-4.11-.27c-.69-.04-1.37-.09-2.06-.13l-2.06-.11c-10.96-.65-21.92-1.06-32.88-1.29l-4.11-.08-2.05-.04-2.05-.02-8.22-.06h-4.1l-4.11.03-4.11.02-4.11.07c-2.74.05-5.48.09-8.22.15l-8.22.25-2.05.06-1.03.03-1.03.04-4.11.17-8.22.34c-5.48.2-10.95.52-16.43.79l-4.11.21c-1.37.07-2.74.13-4.11.22l-8.21.5c-21.9,1.34-43.81,3.08-65.7,5.26l-4.11.41-2.05.2c-.68.07-1.37.15-2.05.22l-8.21.89-4.11.44c-1.37.15-2.74.32-4.11.48l-8.21.97-2.05.24c-.68.08-1.37.17-2.05.26l-4.11.52-8.21,1.05-8.21,1.12-4.1.56-4.1.6-8.21,1.2-8.21,1.27-4.1.64-4.1.67-4.1.67c-1.37.23-2.74.44-4.1.69l-16.41,2.91-2.05.36c-.34.06-.68.12-1.03.18l-1.03.2-4.1.8-8.21,1.61-4.1.8c-.68.13-1.37.28-2.05.42l-2.05.44-8.2,1.75-4.1.88c-1.37.3-2.73.63-4.1.94l-8.2,1.9c-.68.16-1.37.31-2.05.48l-2.05.51-4.1,1.02-4.1,1.02c-1.37.35-2.73.72-4.1,1.08l-4.1,1.09-1.03.27-1.03.29-2.05.58-2.05.58-1.03.29-1.02.31-4.1,1.25-.02-3.26h0l.24,31.32-.02-3.26,4.09-1.86c.34-.15.68-.31,1.02-.46l1.02-.43,2.05-.87,2.05-.86,1.02-.43,1.02-.41,4.1-1.63,2.05-.81,1.02-.41.51-.2.51-.19,4.1-1.52,4.1-1.52,2.05-.76c.34-.13.68-.25,1.02-.36l1.02-.35,8.2-2.82,2.05-.71,1.02-.35c.34-.12.68-.24,1.02-.34l4.1-1.3,8.2-2.61,2.05-.65,1.02-.33c.34-.11.68-.2,1.02-.3l4.1-1.19,8.2-2.39,4.1-1.19,1.02-.3c.34-.1.68-.18,1.03-.27l2.05-.54,16.4-4.33c1.37-.37,2.73-.69,4.1-1.03l4.1-1,4.1-1,4.1-.95,8.2-1.88,8.2-1.77,4.1-.89,4.1-.83,8.21-1.66c2.74-.53,5.47-1.04,8.21-1.55l4.1-.77c.68-.13,1.37-.26,2.05-.38l2.05-.36,8.21-1.43c1.37-.24,2.74-.49,4.1-.71l4.1-.66,8.21-1.32c.68-.11,1.37-.22,2.05-.33l2.05-.3,4.1-.6c21.89-3.23,43.78-5.79,65.68-7.77l8.21-.74c1.37-.13,2.74-.22,4.11-.33l4.11-.31c5.48-.4,10.95-.86,16.43-1.16l8.21-.5,4.11-.25,1.03-.06,1.03-.05,2.05-.09,8.22-.36c.68-.04,1.37-.05,2.05-.06l2.05-.05,4.11-.1,4.11-.1,4.11-.03,4.11-.02h2.05l1.03-.02c.34,0,.68,0,1.03.01l8.22.11,2.05.03,2.05.06,4.11.13c10.96.37,21.92.99,32.89,1.97l2.06.17c.69.06,1.37.13,2.06.2l4.11.4,4.11.41,4.11.46c5.48.57,10.97,1.35,16.45,2.06l8.23,1.08,8.23,1.24,8.23,1.24,2.06.31,2.06.34,4.11.67,8.23,1.34,4.11.67,4.11.68,16.46,2.73,16.46,2.73,16.45,2.52,2.06.31c.69.1,1.37.19,2.06.28l4.11.56,8.23,1.11c5.48.8,10.97,1.34,16.45,1.96l8.22.91,1.03.11c.34.03.69.06,1.03.09l2.06.19,4.11.37,2.06.19c.69.06,1.37.13,2.06.18l4.11.31,4.11.31c.69.05,1.37.11,2.06.15l2.06.12,8.22.49c.69.05,1.37.07,2.06.1l2.06.09,4.11.18c1.37.06,2.74.12,4.11.17l4.11.11,4.11.11,2.05.05,1.03.03h1.03c5.48.05,10.96.15,16.44.07l4.11-.03h2.05c.68-.02,1.37-.02,2.05-.04l8.22-.19c1.37-.03,2.74-.06,4.11-.1l4.11-.16c2.74-.11,5.48-.2,8.22-.32l8.21-.44,2.05-.11c.68-.04,1.37-.07,2.05-.12l4.11-.28,4.11-.28c1.37-.09,2.74-.18,4.11-.3l8.21-.67c.68-.06,1.37-.1,2.05-.17l2.05-.21,4.11-.41,8.21-.83,4.11-.41,2.05-.21,1.03-.1,1.03-.13,8.21-1.01,8.21-1.01c1.37-.17,2.74-.33,4.11-.51l4.1-.57,16.42-2.29,16.42-2.49c10.94-1.65,21.89-3.33,32.83-4.95l8.21-1.23c.68-.1,1.37-.21,2.05-.3l2.05-.28,4.1-.57,8.21-1.14c2.74-.37,5.47-.78,8.21-1.09l16.42-1.98c1.37-.18,2.74-.29,4.11-.43l4.11-.4,8.21-.8,4.11-.4c.68-.06,1.37-.14,2.05-.2l2.05-.16,8.21-.63c2.74-.18,5.48-.34,8.21-.52l2.05-.13c.68-.04,1.37-.09,2.05-.11l4.11-.19c21.91-1.08,43.82-1.03,65.74-.11l2.06.08c.69.04,1.37.08,2.06.13.69.07,1.37.13,2.06.21l1.03.13c.34.04.69.09,1.03.15l1.03.17c.17.03.34.05.51.09l.51.11,2.06.44c.34.08.69.14,1.03.23l1.03.29,2.06.58.26.07c.09.03.17.06.26.09l.51.18,1.03.36,1.03.36.51.18c.17.06.34.14.52.21l2.06.86.52.21c.09.04.17.07.26.11l.26.12,1.03.5,1.03.5.52.25.26.12c.09.04.17.09.26.14l2.06,1.13.52.28c.09.05.17.09.26.14l.26.16,1.03.63,1.03.63.52.32c.17.11.34.23.52.35l2.07,1.4.26.17.26.19.52.38,1.03.77c.34.26.69.5,1.03.77l1.03.83c.69.56,1.38,1.09,2.07,1.71l1.03.9.52.45.26.23.26.24,2.07,1.93,2.07,2.06c.69.72,1.38,1.46,2.07,2.18.69.76,1.38,1.54,2.07,2.31l1.04,1.22.52.61c.17.2.35.4.52.63l2.07,2.64,1.04,1.32,1.04,1.45,1.04,1.45.52.72.26.36.26.39,2.08,3.15c1.39,2.27,2.77,4.47,4.16,7.22l.02,2.74h0l-.2-26.3h0l.02,2.74-.02.07Z"/>
  </g>
  <g id="Layer_4" data-name="Layer 4">
    <path class="cls-4" d="M1044.07,53.48l-1.03-.36-1.03-.33-2.06-.66c-.69-.21-1.37-.41-2.06-.62l-2.06-.58c-2.74-.75-5.49-1.41-8.23-2-2.74-.58-5.49-1.11-8.23-1.55s-5.48-.84-8.23-1.15c-1.37-.17-2.74-.3-4.11-.45-.69-.07-1.37-.12-2.06-.18s-1.37-.12-2.06-.17c-2.74-.2-5.48-.36-8.22-.47s-5.48-.15-8.22-.16c-21.92-.19-43.83-.16-65.74.16-10.96.15-21.91.36-32.87.65-5.48.15-10.96.28-16.43.44l-16.43.53c-21.91.76-43.82,1.66-65.72,2.54-43.82,1.8-87.63,3.22-131.46,3.56l-8.22.06-8.22.03c-5.48.03-10.96.02-16.44.02l-8.22-.03-4.11-.02-4.11-.03-8.22-.08-8.22-.11c-2.74-.03-5.48-.09-8.22-.13-2.74-.05-5.48-.09-8.22-.15-2.74-.06-5.48-.11-8.22-.18l-8.22-.21c-5.48-.15-10.96-.27-16.44-.46l-8.22-.26c-2.74-.09-5.48-.17-8.22-.27l-16.44-.6-16.44-.66-32.88-1.31c-5.48-.22-10.96-.42-16.44-.61l-8.22-.3-8.22-.26c-10.96-.36-21.92-.65-32.88-.87-10.96-.23-21.92-.36-32.87-.43l-4.11-.02c-1.37,0-2.74-.02-4.11-.02h-16.44s-4.11.01-4.11.01l-4.11.05c-10.96.07-21.91.26-32.87.45-5.48.09-10.96.21-16.43.32-2.74.06-5.48.11-8.22.18l-8.22.2c-21.91.54-43.82,1.23-65.73,2.09-21.91.86-43.81,1.87-65.72,3.1l-8.21.46-8.21.49-4.11.25-4.11.26c-2.74.18-5.48.34-8.21.53l-16.43,1.12c-2.74.18-5.48.39-8.21.6l-8.21.62-4.11.31c-1.37.1-2.74.22-4.11.33l-8.21.67-4.11.34-4.11.36-8.21.73c-10.95,1.02-21.9,2.07-32.85,3.36l-.02-3.26h.03l.24,31.32h0l-.02-3.26,4.1-1.09,1.03-.27,1.03-.25,2.05-.51,2.05-.51,1.03-.25,1.03-.24,4.1-.95c1.37-.31,2.73-.64,4.1-.94l4.1-.89,4.1-.89,2.05-.44c.68-.15,1.37-.28,2.05-.42l8.21-1.65c1.37-.27,2.74-.56,4.1-.82l4.1-.76,8.21-1.53,2.05-.38c.68-.13,1.37-.26,2.05-.37l4.1-.7,8.21-1.4,4.1-.7,1.03-.17c.34-.06.68-.11,1.03-.16l2.05-.32,16.42-2.54c1.37-.22,2.74-.4,4.1-.6l4.1-.59,4.1-.59,4.1-.56,8.21-1.11,8.21-1.04,4.11-.52,4.11-.49,8.21-.98,8.21-.91c2.74-.3,5.47-.62,8.21-.89l8.21-.84c1.37-.14,2.74-.29,4.11-.42l4.11-.39,8.21-.78c.68-.06,1.37-.13,2.05-.19l2.05-.18,4.11-.35c21.9-1.9,43.8-3.42,65.71-4.6l8.21-.44c1.37-.08,2.74-.13,4.11-.2l4.11-.18c5.48-.24,10.95-.51,16.43-.69l8.22-.3,4.11-.15c.68-.03,1.37-.05,2.05-.06l2.05-.05,8.22-.22c2.74-.06,5.48-.09,8.22-.14l4.11-.06,4.11-.02,4.11-.02h2.05c.68-.01,1.37-.02,2.05,0l8.22.05h2.05l2.05.05,4.11.07c10.96.2,21.92.55,32.88,1.11l2.06.1c.69.03,1.37.08,2.06.11l4.11.23,4.11.23,4.11.27c5.48.33,10.96.77,16.44,1.18l8.22.62,8.22.71,8.22.71,2.06.18,2.06.19,4.11.39c10.96,1.02,21.93,2.08,32.9,3.13l16.45,1.57,16.45,1.45,2.06.18c.69.06,1.37.11,2.06.16l4.11.32,8.22.64c5.48.46,10.96.77,16.44,1.12l8.22.52,1.03.07,1.03.05,2.06.11,4.11.21c1.37.07,2.74.15,4.11.21l4.11.18,4.11.18,2.06.09,2.05.07,8.22.28c2.74.08,5.48.13,8.22.2,1.37.03,2.74.07,4.11.09l4.11.06,4.11.06,2.05.03h1.03l1.03.02c5.48.02,10.96.07,16.44.02,2.74-.02,5.48-.02,8.22-.05l8.22-.12,4.11-.06,4.11-.1,8.22-.2,8.22-.26c1.37-.05,2.74-.08,4.11-.14l4.11-.17,4.11-.17c1.37-.06,2.74-.11,4.11-.18l8.21-.4c.68-.04,1.37-.06,2.05-.1l2.05-.12,4.11-.25,8.21-.49,4.11-.25,2.05-.12,1.03-.06,1.03-.07,8.21-.59,8.21-.59c1.37-.1,2.74-.19,4.11-.3l4.11-.34,16.43-1.35,16.42-1.47c21.9-1.94,43.8-3.97,65.7-5.64l16.43-1.17c1.37-.11,2.74-.17,4.11-.25l4.11-.24,8.21-.48,4.11-.24c.68-.04,1.37-.08,2.05-.12l2.05-.09,8.22-.38,8.22-.31c1.37-.05,2.74-.11,4.11-.15l4.11-.12c21.91-.66,43.82-.65,65.74-.14l2.05.04,2.06.07c.69.04,1.37.07,2.06.12.69.06,1.37.1,2.06.16,1.37.11,2.74.3,4.11.47.34.04.69.08,1.03.13l1.03.17,2.06.34c.34.05.69.13,1.03.2l1.03.21,1.03.21.51.1c.17.04.34.08.51.12,1.37.34,2.74.64,4.12,1.04.69.2,1.37.38,2.06.58l2.06.65c.69.21,1.37.46,2.06.7l1.03.37.52.18c.17.06.34.13.52.2l2.06.81c.34.13.69.29,1.03.43l1.03.44c.34.15.69.29,1.03.45l1.03.48c.69.33,1.37.63,2.06.99l1.03.52c.34.18.69.34,1.03.53l2.06,1.12,2.06,1.2,2.06,1.27c.69.44,1.38.9,2.06,1.34l1.03.71.52.36c.17.12.34.23.52.37l2.07,1.54,1.03.77,1.03.84,1.03.84.52.42.26.21.26.23,2.07,1.83c1.38,1.32,2.76,2.6,4.14,4.2l-.18-23.5.02,2.68c-2.75-1.34-5.5-2.39-8.24-3.34l-.06.04Z"/>
  </g>
  <g id="Layer_5" data-name="Layer 5">
    <path class="cls-2" d="M1052.11,30.52c-2.73.89-5.47,1.59-8.2,2.22l-1.03.24-1.03.22-2.05.44c-.68.14-1.37.28-2.05.41l-2.05.39c-5.47,1.01-10.94,1.78-16.42,2.4-10.95,1.22-21.9,1.78-32.86,1.83-21.91.22-43.83.29-65.74.18-10.96-.05-21.92-.14-32.87-.29l-16.44-.22-16.44-.28c-21.92-.4-43.84-.9-65.75-1.38-43.84-.99-87.67-1.73-131.5-1.76h-16.44c-5.48,0-10.96.04-16.44.06-10.96.07-21.91.16-32.87.32-10.96.16-21.91.33-32.87.59-10.96.22-21.91.51-32.87.8l-16.43.47-16.43.5-32.86,1c-5.48.17-10.95.32-16.43.47l-8.22.23-8.22.2c-10.96.28-21.91.52-32.87.71-10.96.2-21.91.33-32.87.43-5.48.05-10.96.08-16.43.1l-8.22.02h-8.22c-10.96,0-21.91-.07-32.87-.15-5.48-.03-10.96-.09-16.44-.14l-8.22-.08-8.22-.1c-43.83-.52-87.67-1.42-131.51-2.83-21.92-.7-43.84-1.54-65.76-2.55-10.96-.5-21.92-1.05-32.88-1.65-10.96-.62-21.92-1.26-32.89-2.06l.21,28.05h.03l-.02-3.26c10.95-.86,21.9-1.56,32.85-2.23,10.95-.66,21.9-1.27,32.86-1.82,21.91-1.13,43.81-2.08,65.72-2.9,43.82-1.64,87.64-2.77,131.46-3.52l8.22-.14,8.22-.12c5.48-.08,10.96-.17,16.43-.23,10.96-.14,21.91-.27,32.87-.32l4.11-.03h4.11l8.22-.04c5.48,0,10.96,0,16.44.02,10.96.04,21.92.12,32.87.25,10.96.14,21.92.31,32.88.54l8.22.16,8.22.19c5.48.12,10.96.25,16.44.39l32.88.83,16.44.42,16.44.38c10.96.23,21.92.46,32.88.63,10.96.19,21.92.31,32.87.41,10.96.1,21.92.13,32.87.15,5.48,0,10.96,0,16.44-.03l8.22-.03,8.22-.05c43.83-.27,87.65-1.23,131.47-2.45,21.91-.59,43.82-1.21,65.73-1.72l16.43-.36,16.43-.31c10.96-.21,21.91-.35,32.87-.46,21.91-.23,43.83-.27,65.74-.16,10.96,0,21.92.5,32.88,1.66,5.48.59,10.97,1.33,16.45,2.31l2.06.38c.69.13,1.37.26,2.06.4l2.06.43,1.03.22,1.03.24c2.74.62,5.49,1.31,8.23,2.18l-.18-23.56h0l.02,2.74-.02.02Z"/>
  </g>
  <g id="Layer_6" data-name="Layer 6">
    <path class="cls-3" d="M1047.84,8.44l-2.04,1.84-.26.23-.26.21-.51.42-1.02.85-1.02.85-1.02.77-2.04,1.55c-.17.13-.34.25-.51.37l-.51.36-1.02.72c-.68.45-1.36.91-2.04,1.36l-2.04,1.28-2.05,1.21-2.05,1.13c-.34.19-.68.36-1.02.54l-1.02.53c-.68.36-1.36.67-2.05,1l-1.02.49c-.34.16-.68.3-1.02.46l-1.02.45c-.34.15-.68.31-1.02.44l-2.05.82c-.17.07-.34.14-.51.2l-.51.19-1.02.37c-.68.25-1.37.5-2.05.72l-2.05.67c-.68.21-1.37.4-2.05.59-1.37.42-2.73.72-4.1,1.06-.17.04-.34.09-.51.12l-.51.11-1.03.21-1.03.21c-.34.07-.68.15-1.03.2l-2.05.35-1.03.17c-.34.05-.68.09-1.03.14-1.37.17-2.74.37-4.11.49-.68.07-1.37.11-2.05.17-.68.05-1.37.09-2.05.13l-2.05.08-2.05.05c-21.91.62-43.82.75-65.74.21l-4.11-.09c-1.37-.03-2.74-.08-4.11-.12l-8.22-.27-8.22-.33-2.06-.08c-.69-.03-1.37-.07-2.06-.11l-4.11-.22-8.22-.43-4.11-.22c-1.37-.08-2.74-.13-4.11-.23l-16.44-1.09c-21.93-1.56-43.85-3.47-65.78-5.29l-16.45-1.38-16.45-1.27-4.11-.32c-1.37-.1-2.74-.19-4.11-.28l-8.22-.55-8.22-.55-1.03-.07-1.03-.06-2.06-.11-4.11-.22-8.22-.45-4.11-.22-2.06-.11c-.69-.04-1.37-.06-2.06-.09l-8.22-.36c-1.37-.06-2.74-.11-4.11-.16l-4.11-.14-4.11-.14c-1.37-.05-2.74-.08-4.11-.12l-8.22-.22-8.22-.15-4.11-.07-4.11-.04-8.22-.08c-2.74-.01-5.48,0-8.22,0-5.48-.02-10.96.06-16.44.1h-1.03l-1.03.03-2.05.04-4.11.08-4.11.08c-1.37.03-2.74.08-4.11.12-2.74.08-5.48.15-8.22.25l-8.22.32-2.05.08-2.05.1-4.11.2-4.11.2c-1.37.07-2.74.15-4.11.23l-4.11.23-2.05.12-1.03.06-1.03.07-8.21.57c-5.48.39-10.95.72-16.43,1.21l-8.21.68-4.11.34c-.68.06-1.37.11-2.05.17l-2.05.19-16.42,1.54-16.42,1.66c-10.95,1.11-21.9,2.22-32.85,3.3l-4.11.41-2.05.2-2.05.19-8.21.76-8.21.76-8.21.67c-5.48.44-10.95.91-16.43,1.27l-4.11.29-4.11.25-4.11.25c-.68.04-1.37.09-2.05.12l-2.05.11c-10.95.62-21.91,1.03-32.86,1.29l-4.11.09-2.05.05-2.05.03-8.22.1c-.68.01-1.37.01-2.05.01h-10.27l-4.11-.04c-2.74-.03-5.48-.05-8.22-.09l-8.22-.18-2.05-.04c-.68-.01-1.37-.03-2.05-.05l-4.11-.13-8.22-.26c-5.48-.15-10.96-.4-16.44-.61l-4.11-.16c-1.37-.06-2.74-.1-4.11-.17l-8.22-.39c-21.92-1.06-43.85-2.46-65.78-4.25l-4.11-.33-2.06-.17c-.69-.06-1.37-.12-2.06-.18l-8.22-.73-4.11-.37c-1.37-.12-2.74-.26-4.11-.4l-8.22-.8c-2.74-.26-5.48-.56-8.22-.85l-8.22-.87-8.22-.93-4.11-.47-4.11-.5-8.23-1-8.23-1.06-4.11-.53-4.11-.57-4.11-.57c-1.37-.19-2.74-.37-4.11-.58l-16.45-2.46-2.06-.31c-.34-.05-.69-.1-1.03-.16l-1.03-.17-4.11-.68-8.23-1.36-4.11-.68c-.69-.11-1.37-.23-2.06-.36l-2.06-.37-8.23-1.48-4.11-.74c-1.37-.26-2.74-.53-4.11-.8l-8.23-1.61c-.69-.14-1.37-.26-2.06-.41l-2.06-.43-4.12-.87-4.12-.87c-1.37-.29-2.74-.62-4.12-.92l-4.12-.93-1.03-.23-1.03-.25-2.06-.5-2.06-.5-1.03-.25-1.03-.26L0,0l.19,24.79c10.97,1.23,21.93,2.23,32.9,3.19l8.22.68,4.11.34,4.11.32,8.22.63c1.37.1,2.74.22,4.11.31l4.11.29,8.22.57c2.74.19,5.48.39,8.22.55l16.44,1.04c2.74.17,5.48.32,8.22.48l4.11.24,4.11.23,8.22.45,8.22.42c21.92,1.12,43.84,2.01,65.76,2.76,21.92.74,43.84,1.32,65.76,1.74l8.22.16c2.74.05,5.48.09,8.22.13,5.48.08,10.96.18,16.44.24,10.96.13,21.92.27,32.87.28h8.22l8.22-.02,8.22-.05c1.37,0,2.74-.02,4.11-.04l4.11-.05c10.96-.13,21.91-.32,32.87-.61,10.96-.28,21.91-.62,32.86-1.04l8.22-.3,8.22-.34c5.48-.23,10.95-.45,16.43-.7l32.86-1.48,16.43-.74,16.43-.69c2.74-.12,5.48-.21,8.22-.32l8.22-.31c5.48-.22,10.95-.37,16.43-.55l8.22-.26c2.74-.08,5.48-.15,8.22-.22,2.74-.08,5.48-.14,8.22-.2s5.48-.13,8.22-.17l8.22-.15,8.22-.12,4.11-.06,4.11-.04,8.22-.08c5.48-.03,10.96-.07,16.44-.07h16.44c43.83.12,87.67,1.31,131.51,2.88,21.92.76,43.84,1.55,65.76,2.19l16.44.45c5.48.13,10.96.24,16.44.36,10.96.24,21.92.39,32.88.48,21.92.2,43.83.11,65.74-.19,2.74-.03,5.48-.08,8.22-.2,2.74-.12,5.48-.29,8.21-.51.68-.05,1.37-.12,2.05-.18.68-.07,1.37-.12,2.05-.2,1.37-.15,2.74-.29,4.11-.47,2.74-.33,5.47-.74,8.21-1.2,2.74-.46,5.47-1,8.21-1.6,2.73-.6,5.47-1.28,8.2-2.04l2.05-.59c.68-.21,1.37-.41,2.05-.63l2.05-.67,1.02-.34,1.02-.37c2.73-.97,5.46-2.03,8.19-3.38l-.18-23.45.02,2.62c-1.36,1.61-2.72,2.9-4.08,4.22l-.04.03Z"/>
  </g>
</svg>