<svg width="26" height="26" viewBox="0 0 26 26" fill="none" xmlns="http://www.w3.org/2000/svg">
<g filter="url(#filter0_d_331_150)">
<path d="M12.9989 19C13.2438 19 13.4802 19.09 13.6633 19.2527C13.8463 19.4155 13.9632 19.6397 13.9919 19.883L13.9989 20V21C13.9986 21.2549 13.901 21.5 13.726 21.6854C13.5511 21.8707 13.3119 21.9822 13.0575 21.9972C12.8031 22.0121 12.5525 21.9293 12.3571 21.7657C12.1616 21.6021 12.036 21.3701 12.0059 21.117L11.9989 21V20C11.9989 19.7348 12.1042 19.4804 12.2918 19.2929C12.4793 19.1054 12.7337 19 12.9989 19ZM19.3119 16.91L19.4059 16.993L20.1059 17.693C20.2852 17.873 20.3894 18.1144 20.3971 18.3684C20.4049 18.6223 20.3157 18.8697 20.1476 19.0603C19.9796 19.2508 19.7453 19.3703 19.4924 19.3944C19.2395 19.4185 18.9869 19.3454 18.7859 19.19L18.6919 19.107L17.9919 18.407C17.8193 18.2347 17.7156 18.0054 17.7004 17.762C17.6851 17.5187 17.7592 17.2781 17.9088 17.0856C18.0585 16.8931 18.2733 16.7619 18.5129 16.7166C18.7525 16.6714 19.0004 16.7153 19.2099 16.84L19.3119 16.91ZM8.00589 16.993C8.17807 17.1652 8.2815 17.3943 8.29678 17.6373C8.31206 17.8803 8.23814 18.1206 8.08889 18.313L8.00589 18.407L7.30589 19.107C7.12593 19.2863 6.88446 19.3905 6.63051 19.3982C6.37656 19.406 6.12918 19.3168 5.93861 19.1488C5.74805 18.9807 5.62859 18.7464 5.60449 18.4935C5.5804 18.2406 5.65348 17.988 5.80889 17.787L5.89189 17.693L6.59189 16.993C6.77942 16.8055 7.03373 16.7002 7.29889 16.7002C7.56406 16.7002 7.81836 16.8055 8.00589 16.993ZM4.99889 11C5.25377 11.0003 5.49892 11.0979 5.68426 11.2728C5.8696 11.4478 5.98113 11.687 5.99606 11.9414C6.011 12.1958 5.92822 12.4464 5.76463 12.6418C5.60104 12.8373 5.36899 12.9629 5.11589 12.993L4.99889 13H3.99889C3.74401 12.9997 3.49886 12.9021 3.31352 12.7272C3.12819 12.5522 3.01666 12.313 3.00172 12.0586C2.98678 11.8042 3.06957 11.5536 3.23316 11.3582C3.39675 11.1627 3.6288 11.0371 3.88189 11.007L3.99889 11H4.99889ZM21.9989 11C22.2538 11.0003 22.4989 11.0979 22.6843 11.2728C22.8696 11.4478 22.9811 11.687 22.9961 11.9414C23.011 12.1958 22.9282 12.4464 22.7646 12.6418C22.601 12.8373 22.369 12.9629 22.1159 12.993L21.9989 13H20.9989C20.744 12.9997 20.4989 12.9021 20.3135 12.7272C20.1282 12.5522 20.0167 12.313 20.0017 12.0586C19.9868 11.8042 20.0696 11.5536 20.2332 11.3582C20.3967 11.1627 20.6288 11.0371 20.8819 11.007L20.9989 11H21.9989ZM7.21189 4.81L7.30589 4.893L8.00589 5.593C8.18524 5.77296 8.28937 6.01443 8.29712 6.26838C8.30488 6.52233 8.21568 6.76971 8.04764 6.96028C7.87961 7.15084 7.64534 7.27031 7.39242 7.2944C7.1395 7.31849 6.88688 7.24541 6.68589 7.09L6.59189 7.007L5.89189 6.307C5.71998 6.13468 5.61682 5.90557 5.60176 5.66263C5.58669 5.41969 5.66075 5.17959 5.81005 4.98735C5.95936 4.79511 6.17365 4.66393 6.41276 4.61839C6.65187 4.57285 6.89938 4.61609 7.10889 4.74L7.21189 4.81ZM20.1059 4.893C20.2781 5.06519 20.3815 5.29429 20.3968 5.53732C20.4121 5.78034 20.3381 6.0206 20.1889 6.213L20.1059 6.307L19.4059 7.007C19.2259 7.18635 18.9845 7.29047 18.7305 7.29823C18.4766 7.30598 18.2292 7.21678 18.0386 7.04875C17.848 6.88072 17.7286 6.64645 17.7045 6.39353C17.6804 6.1406 17.7535 5.88799 17.9089 5.687L17.9919 5.593L18.6919 4.893C18.8794 4.70553 19.1337 4.60021 19.3989 4.60021C19.6641 4.60021 19.9184 4.70553 20.1059 4.893ZM12.9989 2C13.2438 2.00003 13.4802 2.08996 13.6633 2.25272C13.8463 2.41547 13.9632 2.63975 13.9919 2.883L13.9989 3V4C13.9986 4.25488 13.901 4.50003 13.726 4.68537C13.5511 4.8707 13.3119 4.98223 13.0575 4.99717C12.8031 5.01211 12.5525 4.92933 12.3571 4.76574C12.1616 4.60214 12.036 4.3701 12.0059 4.117L11.9989 4V3C11.9989 2.73478 12.1042 2.48043 12.2918 2.29289C12.4793 2.10536 12.7337 2 12.9989 2ZM12.9989 7C13.9786 6.99994 14.9367 7.28769 15.7542 7.8275C16.5718 8.36731 17.2127 9.1354 17.5975 10.0364C17.9822 10.9373 18.0938 11.9315 17.9184 12.8953C17.7429 13.8592 17.2882 14.7502 16.6107 15.4579C15.9332 16.1655 15.0627 16.6585 14.1074 16.8756C13.1521 17.0928 12.1541 17.0245 11.2372 16.6793C10.3204 16.334 9.52518 15.7271 8.95035 14.9338C8.37552 14.1405 8.04641 13.1958 8.00389 12.217L7.99889 12L8.00389 11.783C8.05981 10.4958 8.6105 9.27978 9.54112 8.38866C10.4717 7.49754 11.7104 7.00007 12.9989 7Z" fill="black"/>
</g>
<defs>
<filter id="filter0_d_331_150" x="0" y="0" width="25.9961" height="26" filterUnits="userSpaceOnUse" color-interpolation-filters="sRGB">
<feFlood flood-opacity="0" result="BackgroundImageFix"/>
<feColorMatrix in="SourceAlpha" type="matrix" values="0 0 0 0 0 0 0 0 0 0 0 0 0 0 0 0 0 0 127 0" result="hardAlpha"/>
<feOffset dy="1"/>
<feGaussianBlur stdDeviation="1.5"/>
<feComposite in2="hardAlpha" operator="out"/>
<feColorMatrix type="matrix" values="0 0 0 0 0 0 0 0 0 0 0 0 0 0 0 0 0 0 0.25 0"/>
<feBlend mode="normal" in2="BackgroundImageFix" result="effect1_dropShadow_331_150"/>
<feBlend mode="normal" in="SourceGraphic" in2="effect1_dropShadow_331_150" result="shape"/>
</filter>
</defs>
</svg>
