<svg width="30" height="22" viewBox="0 0 30 22" fill="none" xmlns="http://www.w3.org/2000/svg">
<path fill-rule="evenodd" clip-rule="evenodd" d="M15 0C13.3381 0 11.4 0.0392332 9.5107 0.0924782L9.43395 0.0952803C7.51116 0.149927 5.95953 0.193363 4.73721 0.396535C3.46326 0.608114 2.40558 1.01306 1.56 1.88599C0.711628 2.76173 0.34186 3.84485 0.167442 5.14095C1.03962e-08 6.388 0 7.96854 0 9.933V12.0684C0 14.0301 1.03962e-08 15.6106 0.167442 16.8591C0.340465 18.1551 0.711628 19.2383 1.56 20.114C2.40558 20.9883 3.46326 21.3919 4.73721 21.6035C5.95953 21.8066 7.51116 21.8501 9.43395 21.9047L9.5107 21.9075C11.4014 21.9608 13.3381 22 15 22C16.6619 22 18.6 21.9608 20.4893 21.9075L20.566 21.9047C22.4888 21.8501 24.0405 21.8066 25.2628 21.6035C26.5367 21.3919 27.5944 20.9869 28.44 20.114C29.2884 19.2383 29.6595 18.1551 29.8326 16.8591C30 15.612 30 14.0315 30 12.067V9.9316C30 7.96854 30 6.388 29.8326 5.14095C29.6595 3.84485 29.2884 2.76173 28.44 1.88599C27.5944 1.01165 26.5367 0.608114 25.2628 0.396535C24.0405 0.193363 22.4888 0.149927 20.5646 0.0952803L20.4893 0.0924782C18.66 0.0367233 16.8301 0.00589443 15 0ZM13.426 14.7138C13.2669 14.8051 13.0867 14.8528 12.9034 14.8522C12.7202 14.8516 12.5403 14.8027 12.3818 14.7103C12.2233 14.6179 12.0917 14.4854 12.0002 14.3259C11.9087 14.1665 11.8605 13.9857 11.8605 13.8017V8.19693C11.8605 8.0129 11.9087 7.83211 12.0002 7.67265C12.0917 7.5132 12.2233 7.38066 12.3818 7.2883C12.5403 7.19595 12.7202 7.14701 12.9034 7.14639C13.0867 7.14576 13.2669 7.19348 13.426 7.28476L18.3098 10.0871C18.4698 10.1791 18.6029 10.3119 18.6954 10.4721C18.7879 10.6322 18.8366 10.8141 18.8366 10.9993C18.8366 11.1845 18.7879 11.3664 18.6954 11.5265C18.6029 11.6867 18.4698 11.8195 18.3098 11.9115L13.426 14.7138Z" fill="white"/>
</svg>
