<svg width="23" height="22" viewBox="0 0 23 22" fill="none" xmlns="http://www.w3.org/2000/svg">
<path d="M12.6796 0C13.9356 0.00329992 14.5731 0.00989976 15.1235 0.0252994L15.34 0.0329992C15.5901 0.041799 15.8368 0.0527987 16.1349 0.0659983C17.3228 0.120997 18.1333 0.305793 18.8445 0.577486C19.5813 0.856879 20.202 1.23527 20.8228 1.84576C21.3907 2.39545 21.83 3.06065 22.11 3.79491C22.3857 4.49559 22.5733 5.29417 22.6291 6.46564C22.6425 6.75824 22.6537 7.00133 22.6626 7.24882L22.6693 7.46222C22.686 8.00341 22.6927 8.63149 22.695 9.86896L22.6961 10.6895V12.1305C22.6988 12.9328 22.6902 13.7352 22.6704 14.5372L22.6637 14.7506C22.6548 14.9981 22.6436 15.2412 22.6302 15.5338C22.5744 16.7053 22.3846 17.5028 22.11 18.2046C21.83 18.9388 21.3907 19.604 20.8228 20.1537C20.2648 20.7133 19.5897 21.1461 18.8445 21.422C18.1333 21.6937 17.3228 21.8785 16.1349 21.9335L15.34 21.9665L15.1235 21.9731C14.5731 21.9885 13.9356 21.9962 12.6796 21.9984L11.8468 21.9995H10.3854C9.57071 22.0023 8.75602 21.9939 7.94157 21.9742L7.72499 21.9676C7.45996 21.9577 7.195 21.9463 6.9301 21.9335C5.74224 21.8785 4.93172 21.6937 4.21945 21.422C3.47461 21.1459 2.79987 20.7131 2.24228 20.1537C1.67397 19.6041 1.23428 18.9389 0.95394 18.2046C0.678186 17.5039 0.490628 16.7053 0.434807 15.5338L0.401315 14.7506L0.395733 14.5372C0.375153 13.7352 0.365849 12.9328 0.367823 12.1305V9.86896C0.364732 9.06664 0.37292 8.26432 0.392384 7.46222L0.400199 7.24882C0.40913 7.00133 0.420294 6.75824 0.433691 6.46564C0.489512 5.29417 0.677069 4.49669 0.952823 3.79491C1.23382 3.06034 1.67428 2.39512 2.2434 1.84576C2.80066 1.28647 3.47501 0.85366 4.21945 0.577486C4.93172 0.305793 5.74112 0.120997 6.9301 0.0659983C7.22707 0.0527987 7.47491 0.041799 7.72499 0.0329992L7.94157 0.0263993C8.75565 0.00685581 9.56997 -0.00157813 10.3843 0.00109989L12.6796 0ZM11.532 5.49987C10.0515 5.49987 8.63168 6.07932 7.58484 7.11074C6.538 8.14217 5.94989 9.54108 5.94989 10.9997C5.94989 12.4584 6.538 13.8573 7.58484 14.8887C8.63168 15.9202 10.0515 16.4996 11.532 16.4996C13.0124 16.4996 14.4322 15.9202 15.4791 14.8887C16.5259 13.8573 17.114 12.4584 17.114 10.9997C17.114 9.54108 16.5259 8.14217 15.4791 7.11074C14.4322 6.07932 13.0124 5.49987 11.532 5.49987ZM11.532 7.69981C11.9718 7.69974 12.4073 7.78502 12.8137 7.95079C13.2201 8.11656 13.5893 8.35957 13.9004 8.66595C14.2114 8.97232 14.4582 9.33606 14.6266 9.7364C14.795 10.1367 14.8817 10.5658 14.8818 10.9992C14.8818 11.4325 14.7953 11.8617 14.627 12.2621C14.4588 12.6624 14.2121 13.0263 13.9012 13.3327C13.5902 13.6392 13.2211 13.8823 12.8147 14.0483C12.4084 14.2142 11.9729 14.2996 11.5331 14.2997C10.6448 14.2997 9.79291 13.952 9.1648 13.3331C8.5367 12.7143 8.18383 11.8749 8.18383 10.9997C8.18383 10.1245 8.5367 9.28519 9.1648 8.66634C9.79291 8.04748 10.6448 7.69981 11.5331 7.69981M17.3942 3.84991C17.0241 3.84991 16.6692 3.99477 16.4075 4.25262C16.1458 4.51048 15.9987 4.86021 15.9987 5.22487C15.9987 5.58954 16.1458 5.93927 16.4075 6.19712C16.6692 6.45498 17.0241 6.59984 17.3942 6.59984C17.7644 6.59984 18.1193 6.45498 18.381 6.19712C18.6427 5.93927 18.7898 5.58954 18.7898 5.22487C18.7898 4.86021 18.6427 4.51048 18.381 4.25262C18.1193 3.99477 17.7644 3.84991 17.3942 3.84991Z" fill="white"/>
</svg>
