<svg width="65" height="49" viewBox="0 0 65 49" fill="none" xmlns="http://www.w3.org/2000/svg">
<g filter="url(#filter0_d_330_13)">
<rect x="15.7891" y="10.5781" width="33.3963" height="22.1139" fill="white"/>
<path fill-rule="evenodd" clip-rule="evenodd" d="M32.4851 0C29.3292 0 25.6487 0.0720141 22.0609 0.169748L21.9151 0.174891C18.2637 0.275196 15.3172 0.354927 12.996 0.727857C10.5767 1.11622 8.56822 1.85951 6.96245 3.46182C5.35139 5.06928 4.6492 7.05738 4.31797 9.43642C4 11.7254 4 14.6266 4 18.2324V22.1521C4 25.7528 4 28.6539 4.31797 30.9455C4.64655 33.3245 5.35139 35.3126 6.96245 36.9201C8.56822 38.525 10.5767 39.2657 12.996 39.6541C15.3172 40.027 18.2637 40.1067 21.9151 40.207L22.0609 40.2122C25.6513 40.3099 29.3292 40.3819 32.4851 40.3819C35.641 40.3819 39.3215 40.3099 42.9093 40.2122L43.0551 40.207C46.7065 40.1067 49.653 40.027 51.9742 39.6541C54.3935 39.2657 56.402 38.5224 58.0078 36.9201C59.6188 35.3126 60.3237 33.3245 60.6522 30.9455C60.9702 28.6565 60.9702 25.7553 60.9702 22.1495V18.2299C60.9702 14.6266 60.9702 11.7254 60.6522 9.43642C60.3237 7.05738 59.6188 5.06928 58.0078 3.46182C56.402 1.85693 54.3935 1.11622 51.9742 0.727857C49.653 0.354927 46.7065 0.275196 43.0524 0.174891L42.9093 0.169748C39.4355 0.0674072 35.9605 0.0108195 32.4851 0ZM29.4962 27.0079C29.194 27.1754 28.8517 27.263 28.5037 27.2619C28.1557 27.2607 27.8141 27.1709 27.5131 27.0014C27.2121 26.8318 26.9622 26.5886 26.7885 26.2959C26.6147 26.0032 26.5232 25.6713 26.5231 25.3335V15.0458C26.5232 14.708 26.6147 14.3762 26.7885 14.0835C26.9622 13.7908 27.2121 13.5475 27.5131 13.378C27.8141 13.2085 28.1557 13.1186 28.5037 13.1175C28.8517 13.1163 29.194 13.2039 29.4962 13.3715L38.7704 18.5153C39.0743 18.6841 39.3269 18.9279 39.5026 19.2219C39.6783 19.5159 39.7709 19.8498 39.7709 20.1897C39.7709 20.5296 39.6783 20.8634 39.5026 21.1575C39.3269 21.4515 39.0743 21.6952 38.7704 21.864L29.4962 27.0079Z" fill="#F61016"/>
</g>
<defs>
<filter id="filter0_d_330_13" x="0" y="0" width="64.9688" height="48.3828" filterUnits="userSpaceOnUse" color-interpolation-filters="sRGB">
<feFlood flood-opacity="0" result="BackgroundImageFix"/>
<feColorMatrix in="SourceAlpha" type="matrix" values="0 0 0 0 0 0 0 0 0 0 0 0 0 0 0 0 0 0 127 0" result="hardAlpha"/>
<feOffset dy="4"/>
<feGaussianBlur stdDeviation="2"/>
<feComposite in2="hardAlpha" operator="out"/>
<feColorMatrix type="matrix" values="0 0 0 0 0 0 0 0 0 0 0 0 0 0 0 0 0 0 0.25 0"/>
<feBlend mode="normal" in2="BackgroundImageFix" result="effect1_dropShadow_330_13"/>
<feBlend mode="normal" in="SourceGraphic" in2="effect1_dropShadow_330_13" result="shape"/>
</filter>
</defs>
</svg>
